inDegrees=no
num_controls=7
num_derivatives=13
num_iterations=127
num_multipliers=7
num_parameters=0
num_slacks=7
num_states=26
objective=0.497059
objective_accelerations=0.032145
objective_balance=0.003275
objective_effort=0.034974
objective_height=0.421187
objective_ligament=0.005479
solver_duration=1454.076080
status=Solve_Succeeded
success=true
DataType=double
version=3
OpenSimVersion=4.5
endheader
time	/jointset/ground_pelvis/pelvis_tilt/value	/jointset/ground_pelvis/pelvis_tx/value	/jointset/ground_pelvis/pelvis_ty/value	/jointset/hip_r/hip_flexion_r/value	/jointset/hip_r/hip_adduction_r/value	/jointset/hip_r/hip_rotation_r/value	/jointset/back/lumbar_extension/value	/jointset/patellofemoral_r/patellar_flexion_r/value	/jointset/knee_r/knee_flexion_r/value	/jointset/knee_r/knee_adduction_r/value	/jointset/knee_r/knee_rotation_r/value	/jointset/ankle_r/ankle_angle_r/value	/jointset/subtalar_r/subtalar_angle_r/value	/jointset/ground_pelvis/pelvis_tilt/speed	/jointset/ground_pelvis/pelvis_tx/speed	/jointset/ground_pelvis/pelvis_ty/speed	/jointset/hip_r/hip_flexion_r/speed	/jointset/hip_r/hip_adduction_r/speed	/jointset/hip_r/hip_rotation_r/speed	/jointset/back/lumbar_extension/speed	/jointset/patellofemoral_r/patellar_flexion_r/speed	/jointset/knee_r/knee_flexion_r/speed	/jointset/knee_r/knee_adduction_r/speed	/jointset/knee_r/knee_rotation_r/speed	/jointset/ankle_r/ankle_angle_r/speed	/jointset/subtalar_r/subtalar_angle_r/speed	/forceset/tau_hip_flexion_r	/forceset/tau_hip_adduction_r	/forceset/tau_hip_rotation_r	/forceset/tau_knee_flexion_r	/forceset/tau_ankle_angle_r	/forceset/tau_subtalar_angle_r	/forceset/tau_lumbar_extension	lambda_cid13_p0	lambda_cid14_p0	lambda_cid14_p1	lambda_cid14_p2	lambda_cid14_p3	lambda_cid14_p4	lambda_cid14_p5	/jointset/ground_pelvis/pelvis_tilt/accel	/jointset/ground_pelvis/pelvis_tx/accel	/jointset/ground_pelvis/pelvis_ty/accel	/jointset/hip_r/hip_flexion_r/accel	/jointset/hip_r/hip_adduction_r/accel	/jointset/hip_r/hip_rotation_r/accel	/jointset/back/lumbar_extension/accel	/jointset/patellofemoral_r/patellar_flexion_r/accel	/jointset/knee_r/knee_flexion_r/accel	/jointset/knee_r/knee_adduction_r/accel	/jointset/knee_r/knee_rotation_r/accel	/jointset/ankle_r/ankle_angle_r/accel	/jointset/subtalar_r/subtalar_angle_r/accel	gamma_cid13_p0	gamma_cid14_p0	gamma_cid14_p1	gamma_cid14_p2	gamma_cid14_p3	gamma_cid14_p4	gamma_cid14_p5
0	-0.00651515088788205	0.09626019472006861	0.9427240810643354	0.1762555222360518	-0.232152664544694	-0.2616392351661527	-0.038598046466844	0.07317863873452048	0.07317863873451017	0.1745325845288866	0.1745315284417644	0.03247278518263602	-0.003451968323462265	0	0	0	0	0	0	0	0	0	0	0	0	0	0.214870038288879	-0.1501835439194247	-0.04305577546183954	-0.3981286174884563	0.3976262893897944	-0.1518322297376434	-0.1122851936709349	-39.0761870554938	77.75061592417831	-42.48467758371735	-4.009303319357011	-34.52642096201384	-679.6580888364281	50.31953223979043	-1.232406635430757	-0.8751836921275488	-0.4849856077260352	7.354152043289028	0.222220573736829	2.220369969008761	-4.892479569549211	8.418816786114398	8.418816786115555	-2.717293244249293	0.1649985711776926	3.087763280523498	0.930462229038992	8.270655448586674e-08	5.31285743433013e-08	-5.430780086923375e-07	1.72560949481784e-07	1.932893278966783e-08	4.738793481094948e-08	-2.671905794168032e-07
0.01	-0.006572187886566165	0.096219151699709	0.9427008755153337	0.1766092867900003	-0.2321403785035576	-0.2615200839327076	-0.03884308047678016	0.07358761976208832	0.07358761976208122	0.1743966789098332	0.1745283430307372	0.03262619231602368	-0.003404522595758261	-0.01143655500607133	-0.007962402072828346	-0.004627305439241829	0.07026315673062533	0.002404159459656129	0.02372907597412771	-0.04855794935051838	0.08143641713138394	0.0814364171313763	-0.02696202321385556	-0.0006322970509064259	0.03079196893235702	0.009460572102176667	0.2171730533090455	-0.1671751165364462	-0.04421701678809681	-0.4079322891169154	0.4125166690284203	-0.1410231692396851	-0.1128686747110104	-39.08980764889945	82.99221695915419	-36.96754751663299	-4.780359898008806	-40.39743910329931	-680.5460258283177	61.92816597793036	-1.103649371480208	-0.7198342999534342	-0.4495228802515231	6.788938740986267	0.2414996338298354	2.434042975692691	-4.770124721804595	7.952069378278331	7.952069378276718	-2.652859589749716	-0.1765756684010724	3.091510259167689	0.9495027707496616	1.152234976782399e-07	5.656432611502547e-08	-7.642958034278519e-07	1.824221009341895e-07	5.112939217101845e-08	-1.021191396837636e-07	-3.509329063681671e-07
0.02	-0.006744464322978892	0.09610587149160169	0.9426318129382939	0.1776509911618528	-0.2321056536674737	-0.2611666686266995	-0.0395602284010225	0.07480016800128755	0.07480016800128911	0.1739977125126697	0.1745189882841515	0.03309083845065067	-0.003263341533043829	-0.02304788754349301	-0.01444743754953823	-0.009171405607603095	0.1375879635827289	0.004487758989308514	0.04685281451136915	-0.09442278286105464	0.1607134423278844	0.1607134423278742	-0.05261215561954905	-0.001233867108862224	0.0622478002477457	0.01874706700205762	0.219476068329194	-0.1841666891534782	-0.04537825811431358	-0.4177359607454034	0.4274070486670359	-0.1302141087417405	-0.1134521557510854	-39.12995754958573	88.30885479994534	-31.46016389730084	-5.523720908757459	-46.44339869807109	-680.2938010446398	73.3092449306783	-1.267362141700551	-0.579710372904122	-0.4683445535499154	6.766482067584711	0.1581085877360706	2.099302481631411	-4.353856401552616	7.986938399137746	7.986938399139936	-2.45491508261687	0.1711439697679139	3.220535757129533	0.8956467885797712	1.477404408706131e-07	6.000007788674964e-08	-9.855135981633661e-07	1.922832523865951e-07	8.292985155236908e-08	-2.516262141784766e-07	-4.34675233319531e-07
0.03	-0.007033005872315862	0.09593230818883433	0.9425174549777066	0.1793540396379986	-0.2320518778546002	-0.2605877942710843	-0.04072413963762736	0.07679547894745342	0.07679547894745364	0.1733493434564303	0.1745063169239196	0.03386993917225589	-0.003031101820356462	-0.03457986909291424	-0.02029955393440628	-0.01370552207526358	0.20275592985254	0.006222468525176954	0.06879152152503837	-0.138106990141965	0.237994698727667	0.2379946987276632	-0.07684575865072715	-0.001301957254303707	0.09333648250457238	0.02760233048197167	0.2118743247446924	-0.1918689746176947	-0.04298715756292716	-0.4061019389497288	0.4065911330365253	-0.1155794653018431	-0.107769165842008	-39.19558874787032	82.18862441112059	-26.27027309927466	-6.243387880975638	-42.21830414349229	-679.7909398117306	82.46477206637059	-1.084017824944987	-0.5930951971041349	-0.446796457474176	6.352093574772816	0.1743024088748778	2.221629132613462	-4.337831743185703	7.545582354501178	7.545582354500752	-2.375332123345352	-0.095948558752476	3.01768438879151	0.8655503381526801	1.68052423422207e-07	6.703853807708605e-08	-1.111210647640798e-06	2.237947873763178e-07	9.625957003766966e-08	-3.324184827672024e-07	-5.025801238460293e-07
